<svg xmlns="http://www.w3.org/2000/svg" width="128" height="128" viewBox="0 0 16 16" fill="none">
  <path d="M1.01562 3.99727V11.9918L7.97612 15.9891L14.9366 11.9918V3.99727L7.97612 0L1.01562 3.99727Z" fill="white"/>
  <path d="M3.1875 10.7894V5.30546L7.96277 2.56348L12.738 5.30546V10.7894L7.96277 13.5314L3.1875 10.7894Z" fill="#4B6CCB"/>
  <path d="M7.96277 13.5313L12.738 10.7893L7.96277 8.40808L3.1875 10.7893L7.96277 13.5313Z" fill="#193F8E"/>
  <path d="M1 3.99727L3.18522 5.25256L7.9605 2.5106L12.7358 5.25256L14.921 3.99727L7.9605 0L1 3.99727Z" fill="#DCE7F4"/>
  <path d="M7.97656 13.4894V16L14.937 12.0027V4.00818L12.7518 5.26347V10.7474L7.97656 13.4894Z" fill="#C5CCD6"/>
  <path d="M12.7362 10.7894L7.96094 8.40816V2.56348L12.7362 5.30546V10.7894Z" fill="#1E57DC"/>
  <path d="M10.3911 8.7433C10.3911 9.34089 9.90207 9.82735 9.30128 9.82735C8.70047 9.82735 8.2114 9.34089 8.2114 8.7433C8.2114 8.14573 8.70047 7.65927 9.30128 7.65927V7.07627C9.26463 7.07627 9.22984 7.0799 9.19503 7.08173C9.01002 7.0799 8.85984 6.93052 8.85984 6.7465C8.85984 6.56249 9.01002 6.4131 9.19503 6.4131C9.38004 6.4131 9.53023 6.56249 9.53023 6.7465H10.1164C10.1164 6.24002 9.70242 5.83008 9.19503 5.83008C8.68765 5.83008 8.27369 6.24183 8.27369 6.7465C8.27369 6.95601 8.34511 7.14732 8.46418 7.30219C7.96412 7.59005 7.62527 8.12934 7.62527 8.74513C7.62527 9.36094 7.1362 9.82918 6.53539 9.82918C5.93459 9.82918 5.44552 9.34272 5.44552 8.74513C5.44552 8.14756 5.93459 7.6611 6.53539 7.6611V7.07809C6.49875 7.07809 6.46395 7.08173 6.42916 7.08356C6.24415 7.08173 6.09394 6.93235 6.09394 6.74833C6.09394 6.56431 6.24415 6.41491 6.42916 6.41491C6.61415 6.41491 6.76435 6.56431 6.76435 6.74833H7.3505C7.3505 6.24184 6.93654 5.83191 6.42916 5.83191C5.92177 5.83191 5.5078 6.24365 5.5078 6.74833C5.5078 6.95784 5.57924 7.14915 5.6983 7.304C5.19824 7.59187 4.85938 8.13115 4.85938 8.74696C4.85938 9.66702 5.61222 10.414 6.53539 10.414C7.10871 10.414 7.6161 10.1261 7.91833 9.68707C8.22057 10.1261 8.72795 10.414 9.30128 10.414C10.2263 10.414 10.9773 9.66519 10.9773 8.74696H10.3911V8.7433Z" fill="white"/>
</svg>
