<svg id="Layer_1" data-name="Layer 1" xmlns="http://www.w3.org/2000/svg" viewBox="0 0 100 100">
  <defs>
    <style>
      .cls-1 {
        fill: #252e65;
      }

      .cls-2 {
        fill: #fff;
      }
    </style>
  </defs>
  <g>
    <circle class="cls-1" cx="50" cy="50" r="50"/>
    <g>
      <path class="cls-2" d="M38,70a14.56,14.56,0,0,1,0-29.11V46a9.46,9.46,0,1,0,9.46,9.46h5.1A14.57,14.57,0,0,1,38,70Z"/>
      <path class="cls-2" d="M37.07,46a8,8,0,1,1,8-8H40a2.91,2.91,0,1,0-2.91,2.92Z"/>
      <path class="cls-2" d="M52.55,55.45h-5.1A14.57,14.57,0,0,1,62,40.89V46A9.47,9.47,0,0,0,52.55,55.45Z"/>
      <path class="cls-2" d="M62,70V64.91a9.48,9.48,0,0,0,9.46-9.46h5.09A14.57,14.57,0,0,1,62,70Z"/>
      <path class="cls-2" d="M62,70A14.57,14.57,0,0,1,47.45,55.45h5.1A9.47,9.47,0,0,0,62,64.91Z"/>
      <path class="cls-2" d="M61.09,46a8,8,0,1,1,8-8H64a2.91,2.91,0,1,0-2.91,2.92Z"/>
    </g>
  </g>
</svg>
